<?xml version="1.0" standalone="no"?>
<!DOCTYPE svg PUBLIC "-//W3C//DTD SVG 20010904//EN"
 "http://www.w3.org/TR/2001/REC-SVG-20010904/DTD/svg10.dtd">
<svg version="1.0" xmlns="http://www.w3.org/2000/svg"
 width="350.000000pt" height="350.000000pt" viewBox="0 0 350.000000 350.000000"
 preserveAspectRatio="xMidYMid meet">

<g transform="translate(0.000000,350.000000) scale(0.100000,-0.100000)"
fill="#000000" stroke="none">
<path d="M515 3489 c-233 -35 -420 -199 -492 -434 -17 -57 -18 -125 -18 -1305
0 -1180 1 -1248 18 -1305 65 -209 223 -366 428 -422 60 -17 151 -18 1299 -18
1148 0 1239 1 1299 18 165 45 307 161 381 309 73 148 71 101 68 1459 -3 1115
-5 1208 -21 1263 -61 204 -219 362 -423 423 -55 16 -146 18 -1269 19 -665 1
-1237 -2 -1270 -7z m2250 -1157 c68 -34 121 -109 131 -184 14 -99 -35 -195
-130 -256 -35 -22 -52 -26 -116 -26 -44 0 -85 5 -100 13 -54 29 -99 73 -120
116 l-22 45 -153 0 c-195 0 -207 -7 -230 -145 -8 -45 -29 -91 -57 -121 -17
-19 -17 -22 -3 -34 25 -21 52 -80 60 -130 15 -101 41 -136 109 -147 29 -4 34
-2 39 19 10 38 86 119 132 139 58 27 155 25 213 -3 78 -39 142 -140 142 -223
0 -85 -71 -193 -148 -226 -59 -26 -155 -25 -208 0 -48 23 -108 83 -125 123 -7
18 -19 28 -32 28 -11 0 -38 5 -61 12 -102 29 -176 112 -195 219 -18 104 -46
129 -144 129 -49 0 -54 -2 -71 -34 -48 -90 -128 -139 -226 -140 -97 -1 -176
50 -225 144 -15 28 -19 30 -76 30 -56 0 -60 -2 -70 -27 -46 -121 -209 -183
-330 -126 -184 87 -197 331 -24 441 60 38 166 43 230 11 53 -27 111 -86 121
-124 6 -23 10 -25 68 -25 l62 0 34 52 c19 29 55 66 80 83 41 27 52 30 130 30
67 0 91 -4 115 -19 50 -33 86 -69 106 -108 l19 -38 68 0 c40 1 74 6 84 14 22
17 44 68 52 126 10 69 69 147 136 181 54 28 59 29 217 29 l163 0 13 33 c28 65
83 114 157 138 40 13 141 3 185 -19z"/>
<path d="M2574 2186 c-61 -61 -41 -145 41 -175 32 -11 42 -11 74 4 62 28 84
87 53 145 -37 69 -113 81 -168 26z"/>
<path d="M803 1850 c-51 -21 -70 -98 -39 -157 18 -36 33 -43 93 -43 98 0 140
105 69 176 -35 35 -75 43 -123 24z"/>
<path d="M1387 1840 c-51 -40 -53 -140 -4 -175 12 -8 43 -15 70 -15 42 0 53 5
78 31 32 34 38 78 17 124 -24 54 -113 73 -161 35z"/>
<path d="M2353 1488 c-25 -12 -53 -64 -53 -98 0 -68 82 -122 144 -96 51 22 71
52 70 104 -1 39 -6 50 -35 74 -36 30 -84 36 -126 16z"/>
</g>
</svg>
